<?xml version="1.0" standalone="no"?><!DOCTYPE svg PUBLIC "-//W3C//DTD SVG 1.1//EN" "http://www.w3.org/Graphics/SVG/1.1/DTD/svg11.dtd"><svg t="1748607443050" class="icon" viewBox="0 0 1024 1024" version="1.1" xmlns="http://www.w3.org/2000/svg" p-id="1667" xmlns:xlink="http://www.w3.org/1999/xlink" width="48" height="48"><path d="M85.333333 224.853333L139.946667 170.666667 853.333333 884.053333 799.146667 938.666667 384 523.52v223.146667C384 829.013333 317.013333 896 234.666667 896S85.333333 829.013333 85.333333 746.666667 152.32 597.333333 234.666667 597.333333c23.04 0 44.8 5.12 64 14.506667v-173.653333l-213.333334-213.333334M896 128v533.333333c0 42.666667-18.346667 81.92-47.786667 109.226667l-210.773333-210.773333c27.306667-29.44 66.56-47.786667 109.226667-47.786667 23.04 0 44.8 5.12 64 14.506667V276.053333l-376.746667 80.213334-107.093333-107.093334L896 128z" p-id="1668" fill="#cdcdcd"></path></svg>